<svg width="551" height="484" viewBox="0 0 551 484" fill="none" xmlns="http://www.w3.org/2000/svg">
<path d="M273 157.5C248.2 155.5 230.666 161.667 225 165C223 231 270 277 275.5 282.5C327.5 232 326.5 175 326.5 168C324 167 304 160 273 157.5Z" fill="#92CAFF"/>
<circle cx="164" cy="164" r="159" stroke="#FF9595" stroke-width="10"/>
<circle cx="387" cy="164" r="159" stroke="#95BFFF" stroke-width="10"/>
<circle cx="270" cy="320" r="159" stroke="#75EAEE" stroke-width="10"/>
<path d="M344.609 139.469H350.703V141.344H348.828V149.078C348.828 149.609 348.771 150.119 348.658 150.607C348.545 151.096 348.359 151.562 348.102 152.008C347.848 152.449 347.533 152.834 347.158 153.162C346.787 153.49 346.322 153.752 345.764 153.947C345.205 154.139 344.586 154.234 343.906 154.234C342.43 154.234 341.223 154.025 340.285 153.607C339.348 153.186 338.662 152.564 338.229 151.744C337.795 150.92 337.578 149.875 337.578 148.609V141.344H335.703V139.469H343.203V141.344H341.328V148.609C341.328 149.035 341.359 149.428 341.422 149.787C341.488 150.146 341.574 150.453 341.68 150.707C341.785 150.957 341.914 151.182 342.066 151.381C342.219 151.576 342.377 151.734 342.541 151.855C342.705 151.977 342.881 152.076 343.068 152.154C343.26 152.232 343.441 152.287 343.613 152.318C343.785 152.346 343.961 152.359 344.141 152.359C344.598 152.359 345.006 152.277 345.365 152.113C345.729 151.945 346.023 151.715 346.25 151.422C346.48 151.125 346.654 150.779 346.771 150.385C346.893 149.986 346.953 149.551 346.953 149.078V141.344H344.609V139.469ZM352.109 139.469H357.324L363.359 146.57V141.344H361.484V139.469H367.578V141.344H365.703V154H364.297L356.328 144.625V152.125H358.203V154H352.109V152.125H353.984V141.344H352.109V139.469ZM368.867 139.469H376.367V141.344H374.492V152.125H376.367V154H368.867V152.125H370.742V141.344H368.867V139.469ZM385.977 147.396C386.238 148.002 386.473 148.719 386.68 149.547C386.883 148.738 387.117 148.021 387.383 147.396L389.961 141.344H387.383V139.469H393.711V141.344H392.305L386.914 154H384.336L378.945 141.344H377.539V139.469H385.039V141.344H383.398L385.977 147.396ZM394.883 139.469H407.539V144.156H405.43V143.219C405.43 143.027 405.412 142.83 405.377 142.627C405.346 142.424 405.295 142.223 405.225 142.023C405.158 141.824 405.061 141.662 404.932 141.537C404.803 141.408 404.656 141.344 404.492 141.344H400.508V146.5H402.617V144.391H404.492V150.484H402.617V148.375H400.508V152.125H404.727C404.891 152.125 405.037 152.062 405.166 151.938C405.295 151.809 405.393 151.645 405.459 151.445C405.529 151.246 405.58 151.045 405.611 150.842C405.646 150.639 405.664 150.441 405.664 150.25V149.312H407.773V154H394.883V152.125H396.758V141.344H394.883V139.469ZM409.414 154V152.125H411.289V141.344H409.414V139.469H415.508C416.926 139.469 418.037 139.514 418.842 139.604C419.65 139.693 420.279 139.834 420.729 140.025C421.182 140.213 421.598 140.496 421.977 140.875C422.316 141.215 422.572 141.643 422.744 142.158C422.92 142.67 423.008 143.219 423.008 143.805C423.008 145.629 422.127 146.914 420.365 147.66C421.01 148.211 421.422 149.074 421.602 150.25C421.621 150.375 421.645 150.537 421.672 150.736C421.699 150.932 421.721 151.084 421.736 151.193C421.752 151.299 421.773 151.426 421.801 151.574C421.828 151.719 421.854 151.83 421.877 151.908C421.9 151.986 421.93 152.064 421.965 152.143C422 152.221 422.039 152.277 422.082 152.312C422.129 152.344 422.18 152.359 422.234 152.359C422.355 152.359 422.459 152.305 422.545 152.195C422.635 152.086 422.707 151.924 422.762 151.709C422.816 151.49 422.857 151.291 422.885 151.111C422.912 150.932 422.943 150.697 422.979 150.408C422.986 150.338 422.992 150.285 422.996 150.25L424.648 150.42C424.609 150.799 424.574 151.094 424.543 151.305C424.516 151.516 424.469 151.777 424.402 152.09C424.336 152.402 424.26 152.645 424.174 152.816C424.088 152.988 423.969 153.18 423.816 153.391C423.668 153.598 423.494 153.754 423.295 153.859C423.096 153.961 422.85 154.049 422.557 154.123C422.268 154.197 421.939 154.234 421.572 154.234C421.307 154.234 421.062 154.223 420.84 154.199C420.617 154.176 420.41 154.137 420.219 154.082C420.031 154.027 419.859 153.967 419.703 153.9C419.547 153.834 419.4 153.744 419.264 153.631C419.127 153.518 419.004 153.404 418.895 153.291C418.789 153.174 418.686 153.027 418.584 152.852C418.482 152.676 418.393 152.506 418.314 152.342C418.24 152.174 418.16 151.971 418.074 151.732C417.988 151.49 417.912 151.26 417.846 151.041C417.779 150.822 417.703 150.559 417.617 150.25C417.512 149.875 417.412 149.58 417.318 149.365C417.229 149.146 417.113 148.957 416.973 148.797C416.832 148.637 416.664 148.527 416.469 148.469C416.277 148.406 416.035 148.375 415.742 148.375H415.039V152.125H416.914V154H409.414ZM415.039 146.5H415.977C417.852 146.5 418.789 145.641 418.789 143.922C418.789 143.625 418.768 143.355 418.725 143.113C418.686 142.871 418.611 142.637 418.502 142.41C418.393 142.184 418.252 141.994 418.08 141.842C417.908 141.689 417.684 141.568 417.406 141.479C417.129 141.389 416.809 141.344 416.445 141.344H415.039V146.5ZM429.453 142.75C429.453 143.121 429.539 143.455 429.711 143.752C429.883 144.045 430.113 144.291 430.402 144.49C430.691 144.689 431.023 144.873 431.398 145.041C431.773 145.209 432.168 145.369 432.582 145.521C432.996 145.67 433.41 145.826 433.824 145.99C434.238 146.15 434.633 146.344 435.008 146.57C435.383 146.793 435.715 147.045 436.004 147.326C436.293 147.604 436.523 147.953 436.695 148.375C436.867 148.793 436.953 149.262 436.953 149.781C436.953 150.418 436.812 151.012 436.531 151.562C436.25 152.113 435.863 152.586 435.371 152.98C434.883 153.371 434.289 153.678 433.59 153.9C432.891 154.123 432.137 154.234 431.328 154.234C431.016 154.234 430.686 154.213 430.338 154.17C429.994 154.131 429.629 154.062 429.242 153.965C428.859 153.867 428.49 153.748 428.135 153.607C427.779 153.467 427.438 153.289 427.109 153.074C426.785 152.855 426.502 152.613 426.26 152.348C426.018 152.082 425.824 151.77 425.68 151.41C425.539 151.047 425.469 150.66 425.469 150.25C425.469 149.73 425.65 149.289 426.014 148.926C426.381 148.559 426.824 148.375 427.344 148.375C427.863 148.375 428.305 148.559 428.668 148.926C429.035 149.289 429.219 149.73 429.219 150.25C429.219 150.586 429.137 150.896 428.973 151.182C428.812 151.463 428.594 151.688 428.316 151.855C428.902 152.191 429.672 152.359 430.625 152.359C431.473 152.359 432.113 152.229 432.547 151.967C432.984 151.705 433.203 151.289 433.203 150.719C433.203 150.348 433.117 150.016 432.945 149.723C432.773 149.426 432.543 149.178 432.254 148.979C431.965 148.779 431.633 148.596 431.258 148.428C430.883 148.26 430.488 148.102 430.074 147.953C429.66 147.801 429.246 147.645 428.832 147.484C428.418 147.32 428.023 147.127 427.648 146.904C427.273 146.678 426.941 146.426 426.652 146.148C426.363 145.867 426.133 145.518 425.961 145.1C425.789 144.678 425.703 144.207 425.703 143.688C425.703 143.047 425.83 142.453 426.084 141.906C426.342 141.355 426.701 140.885 427.162 140.494C427.627 140.1 428.197 139.791 428.873 139.568C429.549 139.346 430.289 139.234 431.094 139.234C431.406 139.234 431.73 139.256 432.066 139.299C432.406 139.338 432.76 139.406 433.127 139.504C433.498 139.602 433.854 139.721 434.193 139.861C434.533 140.002 434.857 140.182 435.166 140.4C435.479 140.615 435.748 140.855 435.975 141.121C436.201 141.387 436.381 141.699 436.514 142.059C436.65 142.418 436.719 142.805 436.719 143.219C436.719 143.738 436.535 144.182 436.168 144.549C435.805 144.912 435.363 145.094 434.844 145.094C434.324 145.094 433.881 144.912 433.514 144.549C433.15 144.182 432.969 143.738 432.969 143.219C432.969 142.871 433.057 142.553 433.232 142.264C433.408 141.971 433.641 141.742 433.93 141.578C433.41 141.266 432.699 141.109 431.797 141.109C430.973 141.109 430.375 141.238 430.004 141.496C429.637 141.75 429.453 142.168 429.453 142.75ZM438.125 139.469H445.625V141.344H443.75V152.125H445.625V154H438.125V152.125H440V141.344H438.125V139.469ZM446.914 139.469H460.508V144.156H458.398V143.219C458.398 143.027 458.381 142.83 458.346 142.627C458.314 142.424 458.264 142.223 458.193 142.023C458.127 141.824 458.029 141.662 457.9 141.537C457.771 141.408 457.625 141.344 457.461 141.344H455.586V152.125H457.461V154H449.961V152.125H451.836V141.344H449.961C449.797 141.344 449.65 141.408 449.521 141.537C449.393 141.662 449.293 141.824 449.223 142.023C449.156 142.223 449.105 142.424 449.07 142.627C449.039 142.83 449.023 143.027 449.023 143.219V144.156H446.914V139.469ZM465.705 137.992L468.518 135.18C468.787 134.91 469.111 134.775 469.49 134.775C469.869 134.775 470.193 134.91 470.463 135.18C470.732 135.445 470.867 135.77 470.867 136.152C470.867 136.465 470.771 136.744 470.58 136.99C470.393 137.236 470.148 137.4 469.848 137.482L466.004 138.514C465.973 138.521 465.945 138.525 465.922 138.525C465.836 138.525 465.762 138.496 465.699 138.438C465.641 138.375 465.611 138.301 465.611 138.215C465.611 138.129 465.643 138.055 465.705 137.992ZM461.797 139.469H474.453V144.156H472.344V143.219C472.344 143.027 472.326 142.83 472.291 142.627C472.26 142.424 472.209 142.223 472.139 142.023C472.072 141.824 471.975 141.662 471.846 141.537C471.717 141.408 471.57 141.344 471.406 141.344H467.422V146.5H469.531V144.391H471.406V150.484H469.531V148.375H467.422V152.125H471.641C471.805 152.125 471.951 152.062 472.08 151.938C472.209 151.809 472.307 151.645 472.373 151.445C472.443 151.246 472.494 151.045 472.525 150.842C472.561 150.639 472.578 150.441 472.578 150.25V149.312H474.688V154H461.797V152.125H463.672V141.344H461.797V139.469Z" fill="#95BFFF"/>
<path d="M212.703 333.469H218.797L222.418 340.336L225.846 333.469H231.453V335.344H229.578V346.125H231.453V348H223.953V346.125H225.828V337.67L222.078 345.188H220.906L216.922 337.641V346.125H218.797V348H212.703V346.125H214.578V335.344H212.703V333.469ZM239.422 333.469H242L247.607 346.125H249.031V348H241.531V346.125H243.406L242.574 344.25H237.277L236.498 346.125H240.125V348H232.625V346.125H234.154L239.422 333.469ZM238.057 342.375H241.742L240.289 339.094C240.102 338.664 239.953 338.242 239.844 337.828C239.691 338.367 239.551 338.789 239.422 339.094L238.057 342.375ZM250.203 348V346.125H252.078V335.344H250.203V333.469H256.297C257.715 333.469 258.826 333.514 259.631 333.604C260.439 333.693 261.068 333.834 261.518 334.025C261.971 334.213 262.387 334.496 262.766 334.875C263.105 335.215 263.361 335.643 263.533 336.158C263.709 336.67 263.797 337.219 263.797 337.805C263.797 339.629 262.916 340.914 261.154 341.66C261.799 342.211 262.211 343.074 262.391 344.25C262.41 344.375 262.434 344.537 262.461 344.736C262.488 344.932 262.51 345.084 262.525 345.193C262.541 345.299 262.562 345.426 262.59 345.574C262.617 345.719 262.643 345.83 262.666 345.908C262.689 345.986 262.719 346.064 262.754 346.143C262.789 346.221 262.828 346.277 262.871 346.312C262.918 346.344 262.969 346.359 263.023 346.359C263.145 346.359 263.248 346.305 263.334 346.195C263.424 346.086 263.496 345.924 263.551 345.709C263.605 345.49 263.646 345.291 263.674 345.111C263.701 344.932 263.732 344.697 263.768 344.408C263.775 344.338 263.781 344.285 263.785 344.25L265.438 344.42C265.398 344.799 265.363 345.094 265.332 345.305C265.305 345.516 265.258 345.777 265.191 346.09C265.125 346.402 265.049 346.645 264.963 346.816C264.877 346.988 264.758 347.18 264.605 347.391C264.457 347.598 264.283 347.754 264.084 347.859C263.885 347.961 263.639 348.049 263.346 348.123C263.057 348.197 262.729 348.234 262.361 348.234C262.096 348.234 261.852 348.223 261.629 348.199C261.406 348.176 261.199 348.137 261.008 348.082C260.82 348.027 260.648 347.967 260.492 347.9C260.336 347.834 260.189 347.744 260.053 347.631C259.916 347.518 259.793 347.404 259.684 347.291C259.578 347.174 259.475 347.027 259.373 346.852C259.271 346.676 259.182 346.506 259.104 346.342C259.029 346.174 258.949 345.971 258.863 345.732C258.777 345.49 258.701 345.26 258.635 345.041C258.568 344.822 258.492 344.559 258.406 344.25C258.301 343.875 258.201 343.58 258.107 343.365C258.018 343.146 257.902 342.957 257.762 342.797C257.621 342.637 257.453 342.527 257.258 342.469C257.066 342.406 256.824 342.375 256.531 342.375H255.828V346.125H257.703V348H250.203ZM255.828 340.5H256.766C258.641 340.5 259.578 339.641 259.578 337.922C259.578 337.625 259.557 337.355 259.514 337.113C259.475 336.871 259.4 336.637 259.291 336.41C259.182 336.184 259.041 335.994 258.869 335.842C258.697 335.689 258.473 335.568 258.195 335.479C257.918 335.389 257.598 335.344 257.234 335.344H255.828V340.5ZM273.523 333.234C275.574 333.234 277.215 333.781 278.445 334.875C278.949 335.32 279.309 335.77 279.523 336.223C279.742 336.672 279.852 337.238 279.852 337.922C279.852 338.441 279.668 338.885 279.301 339.252C278.938 339.615 278.496 339.797 277.977 339.797C277.457 339.797 277.014 339.615 276.646 339.252C276.283 338.885 276.102 338.441 276.102 337.922C276.102 337.656 276.154 337.406 276.26 337.172C276.365 336.934 276.512 336.727 276.699 336.551C276.418 336.027 276.037 335.656 275.557 335.438C275.08 335.219 274.48 335.109 273.758 335.109C273.285 335.109 272.846 335.205 272.439 335.396C272.037 335.588 271.688 335.855 271.391 336.199C271.098 336.543 270.846 336.949 270.635 337.418C270.424 337.887 270.266 338.402 270.16 338.965C270.059 339.523 270.008 340.113 270.008 340.734C270.008 341.348 270.07 341.938 270.195 342.504C270.32 343.07 270.502 343.586 270.74 344.051C270.979 344.516 271.258 344.922 271.578 345.27C271.898 345.613 272.266 345.881 272.68 346.072C273.098 346.264 273.535 346.359 273.992 346.359C274.656 346.359 275.273 346.182 275.844 345.826C276.418 345.471 276.893 344.973 277.268 344.332C277.646 343.688 277.883 342.957 277.977 342.141L279.852 342.609C279.758 343.066 279.648 343.492 279.523 343.887C279.398 344.277 279.242 344.668 279.055 345.059C278.867 345.445 278.654 345.795 278.416 346.107C278.178 346.42 277.896 346.711 277.572 346.98C277.248 347.25 276.891 347.477 276.5 347.66C276.109 347.84 275.662 347.98 275.158 348.082C274.654 348.184 274.109 348.234 273.523 348.234C272.824 348.234 272.156 348.16 271.52 348.012C270.887 347.867 270.312 347.664 269.797 347.402C269.285 347.141 268.812 346.828 268.379 346.465C267.945 346.102 267.57 345.701 267.254 345.264C266.938 344.822 266.668 344.355 266.445 343.863C266.227 343.367 266.062 342.857 265.953 342.334C265.844 341.807 265.789 341.273 265.789 340.734C265.789 340.195 265.844 339.664 265.953 339.141C266.062 338.613 266.227 338.104 266.445 337.611C266.668 337.115 266.938 336.648 267.254 336.211C267.57 335.77 267.945 335.367 268.379 335.004C268.812 334.641 269.285 334.328 269.797 334.066C270.312 333.805 270.887 333.602 271.52 333.457C272.156 333.309 272.824 333.234 273.523 333.234ZM289.93 333.469H297.43V335.344H295.555V346.125H297.43V348H289.93V346.125H291.805V342.375H286.648V346.125H288.523V348H281.023V346.125H282.898V335.344H281.023V333.469H288.523V335.344H286.648V340.5H291.805V335.344H289.93V333.469ZM302.744 331.992L305.557 329.18C305.826 328.91 306.15 328.775 306.529 328.775C306.908 328.775 307.232 328.91 307.502 329.18C307.771 329.445 307.906 329.77 307.906 330.152C307.906 330.465 307.811 330.744 307.619 330.99C307.432 331.236 307.188 331.4 306.887 331.482L303.043 332.514C303.012 332.521 302.984 332.525 302.961 332.525C302.875 332.525 302.801 332.496 302.738 332.438C302.68 332.375 302.65 332.301 302.65 332.215C302.65 332.129 302.682 332.055 302.744 331.992ZM298.836 333.469H311.492V338.156H309.383V337.219C309.383 337.027 309.365 336.83 309.33 336.627C309.299 336.424 309.248 336.223 309.178 336.023C309.111 335.824 309.014 335.662 308.885 335.537C308.756 335.408 308.609 335.344 308.445 335.344H304.461V340.5H306.57V338.391H308.445V344.484H306.57V342.375H304.461V346.125H308.68C308.844 346.125 308.99 346.062 309.119 345.938C309.248 345.809 309.346 345.645 309.412 345.445C309.482 345.246 309.533 345.045 309.564 344.842C309.6 344.639 309.617 344.441 309.617 344.25V343.312H311.727V348H298.836V346.125H300.711V335.344H298.836V333.469ZM220.203 374H212.703V372.125H214.578V361.344H212.703V359.469H220.203C221.043 359.469 221.836 359.562 222.582 359.75C223.328 359.934 223.988 360.191 224.562 360.523C225.141 360.852 225.658 361.242 226.115 361.695C226.576 362.148 226.955 362.645 227.252 363.184C227.553 363.723 227.781 364.293 227.938 364.895C228.094 365.492 228.172 366.105 228.172 366.734C228.172 367.363 228.094 367.979 227.938 368.58C227.781 369.178 227.553 369.746 227.252 370.285C226.955 370.824 226.576 371.32 226.115 371.773C225.658 372.227 225.141 372.619 224.562 372.951C223.988 373.279 223.328 373.537 222.582 373.725C221.836 373.908 221.043 374 220.203 374ZM220.203 372.125C220.812 372.125 221.357 371.99 221.838 371.721C222.318 371.447 222.711 371.068 223.016 370.584C223.324 370.1 223.557 369.533 223.713 368.885C223.873 368.232 223.953 367.516 223.953 366.734C223.953 366.109 223.906 365.527 223.812 364.988C223.719 364.449 223.572 363.955 223.373 363.506C223.174 363.053 222.928 362.668 222.635 362.352C222.346 362.031 221.994 361.783 221.58 361.607C221.166 361.432 220.707 361.344 220.203 361.344H218.328V372.125H220.203ZM230.926 359.117C231.352 359.117 231.73 359.246 232.062 359.504C232.398 359.762 232.623 360.096 232.736 360.506C232.814 360.791 232.854 361.092 232.854 361.408C232.854 361.889 232.76 362.377 232.572 362.873C232.385 363.365 232.127 363.83 231.799 364.268C231.471 364.705 231.09 365.115 230.656 365.498C230.227 365.877 229.764 366.211 229.268 366.5L228.418 365.65C229.301 364.943 229.902 364.396 230.223 364.01C230.547 363.623 230.715 363.238 230.727 362.855C230.25 362.801 229.852 362.596 229.531 362.24C229.211 361.885 229.051 361.469 229.051 360.992C229.051 360.473 229.232 360.031 229.596 359.668C229.963 359.301 230.406 359.117 230.926 359.117ZM233.914 359.469H246.57V364.156H244.461V363.219C244.461 363.027 244.443 362.83 244.408 362.627C244.377 362.424 244.326 362.223 244.256 362.023C244.189 361.824 244.092 361.662 243.963 361.537C243.834 361.408 243.688 361.344 243.523 361.344H239.539V366.5H241.648V364.391H243.523V370.484H241.648V368.375H239.539V372.125H243.758C243.922 372.125 244.068 372.062 244.197 371.938C244.326 371.809 244.424 371.645 244.49 371.445C244.561 371.246 244.611 371.045 244.643 370.842C244.678 370.639 244.695 370.441 244.695 370.25V369.312H246.805V374H233.914V372.125H235.789V361.344H233.914V359.469ZM248.445 359.469H254.539L258.16 366.336L261.588 359.469H267.195V361.344H265.32V372.125H267.195V374H259.695V372.125H261.57V363.67L257.82 371.188H256.648L252.664 363.641V372.125H254.539V374H248.445V372.125H250.32V361.344H248.445V359.469ZM268.602 374V372.125H270.477V361.344H268.602V359.469H274.695C276.113 359.469 277.225 359.514 278.029 359.604C278.838 359.693 279.467 359.834 279.916 360.025C280.369 360.213 280.785 360.496 281.164 360.875C281.504 361.215 281.76 361.643 281.932 362.158C282.107 362.67 282.195 363.219 282.195 363.805C282.195 364.281 282.133 364.723 282.008 365.129C281.887 365.531 281.713 365.889 281.486 366.201C281.264 366.51 280.988 366.787 280.66 367.033C280.336 367.275 279.977 367.48 279.582 367.648C279.188 367.816 278.75 367.955 278.27 368.064C277.793 368.174 277.299 368.254 276.787 368.305C276.279 368.352 275.738 368.375 275.164 368.375H274.227V372.125H276.57V374H268.602ZM274.227 366.5H275.164C277.039 366.5 277.977 365.641 277.977 363.922C277.977 363.625 277.955 363.355 277.912 363.113C277.873 362.871 277.799 362.637 277.689 362.41C277.58 362.184 277.439 361.994 277.268 361.842C277.096 361.689 276.871 361.568 276.594 361.479C276.316 361.389 275.996 361.344 275.633 361.344H274.227V366.5ZM283.25 359.469H291.219V361.344H288.875V372.125H292.625C292.789 372.125 292.936 372.062 293.064 371.938C293.193 371.809 293.291 371.645 293.357 371.445C293.428 371.246 293.479 371.045 293.51 370.842C293.545 370.639 293.562 370.441 293.562 370.25V368.375H295.672V374H283.25V372.125H285.125V361.344H283.25V359.469ZM302.574 359.457C303.211 359.309 303.879 359.234 304.578 359.234C305.277 359.234 305.943 359.309 306.576 359.457C307.213 359.602 307.787 359.805 308.299 360.066C308.814 360.328 309.289 360.641 309.723 361.004C310.156 361.367 310.531 361.77 310.848 362.211C311.164 362.648 311.432 363.115 311.65 363.611C311.873 364.104 312.039 364.613 312.148 365.141C312.258 365.664 312.312 366.195 312.312 366.734C312.312 367.273 312.258 367.807 312.148 368.334C312.039 368.857 311.873 369.367 311.65 369.863C311.432 370.355 311.164 370.822 310.848 371.264C310.531 371.701 310.156 372.102 309.723 372.465C309.289 372.828 308.814 373.141 308.299 373.402C307.787 373.664 307.213 373.867 306.576 374.012C305.943 374.16 305.277 374.234 304.578 374.234C303.879 374.234 303.211 374.16 302.574 374.012C301.941 373.867 301.367 373.664 300.852 373.402C300.34 373.141 299.867 372.828 299.434 372.465C299 372.102 298.625 371.701 298.309 371.264C297.992 370.822 297.723 370.355 297.5 369.863C297.281 369.367 297.117 368.857 297.008 368.334C296.898 367.807 296.844 367.273 296.844 366.734C296.844 366.195 296.898 365.664 297.008 365.141C297.117 364.613 297.281 364.104 297.5 363.611C297.723 363.115 297.992 362.648 298.309 362.211C298.625 361.77 299 361.367 299.434 361.004C299.867 360.641 300.34 360.328 300.852 360.066C301.367 359.805 301.941 359.602 302.574 359.457ZM305.867 361.402C305.48 361.207 305.051 361.109 304.578 361.109C304.105 361.109 303.674 361.207 303.283 361.402C302.896 361.594 302.566 361.859 302.293 362.199C302.023 362.539 301.795 362.947 301.607 363.424C301.42 363.896 301.281 364.41 301.191 364.965C301.105 365.52 301.062 366.109 301.062 366.734C301.062 367.516 301.137 368.244 301.285 368.92C301.438 369.592 301.656 370.186 301.941 370.701C302.227 371.217 302.594 371.623 303.043 371.92C303.496 372.213 304.008 372.359 304.578 372.359C305.148 372.359 305.658 372.213 306.107 371.92C306.561 371.623 306.93 371.217 307.215 370.701C307.5 370.186 307.717 369.592 307.865 368.92C308.018 368.244 308.094 367.516 308.094 366.734C308.094 366.109 308.049 365.52 307.959 364.965C307.873 364.41 307.736 363.896 307.549 363.424C307.361 362.947 307.131 362.539 306.857 362.199C306.588 361.859 306.258 361.594 305.867 361.402ZM313.25 359.469H320.75V361.344H318.875V372.125H320.75V374H313.25V372.125H315.125V361.344H313.25V359.469Z" fill="#75EAEE"/>
<path d="M127.453 144.75C127.453 145.121 127.539 145.455 127.711 145.752C127.883 146.045 128.113 146.291 128.402 146.49C128.691 146.689 129.023 146.873 129.398 147.041C129.773 147.209 130.168 147.369 130.582 147.521C130.996 147.67 131.41 147.826 131.824 147.99C132.238 148.15 132.633 148.344 133.008 148.57C133.383 148.793 133.715 149.045 134.004 149.326C134.293 149.604 134.523 149.953 134.695 150.375C134.867 150.793 134.953 151.262 134.953 151.781C134.953 152.418 134.812 153.012 134.531 153.562C134.25 154.113 133.863 154.586 133.371 154.98C132.883 155.371 132.289 155.678 131.59 155.9C130.891 156.123 130.137 156.234 129.328 156.234C129.016 156.234 128.686 156.213 128.338 156.17C127.994 156.131 127.629 156.062 127.242 155.965C126.859 155.867 126.49 155.748 126.135 155.607C125.779 155.467 125.438 155.289 125.109 155.074C124.785 154.855 124.502 154.613 124.26 154.348C124.018 154.082 123.824 153.77 123.68 153.41C123.539 153.047 123.469 152.66 123.469 152.25C123.469 151.73 123.65 151.289 124.014 150.926C124.381 150.559 124.824 150.375 125.344 150.375C125.863 150.375 126.305 150.559 126.668 150.926C127.035 151.289 127.219 151.73 127.219 152.25C127.219 152.586 127.137 152.896 126.973 153.182C126.812 153.463 126.594 153.688 126.316 153.855C126.902 154.191 127.672 154.359 128.625 154.359C129.473 154.359 130.113 154.229 130.547 153.967C130.984 153.705 131.203 153.289 131.203 152.719C131.203 152.348 131.117 152.016 130.945 151.723C130.773 151.426 130.543 151.178 130.254 150.979C129.965 150.779 129.633 150.596 129.258 150.428C128.883 150.26 128.488 150.102 128.074 149.953C127.66 149.801 127.246 149.645 126.832 149.484C126.418 149.32 126.023 149.127 125.648 148.904C125.273 148.678 124.941 148.426 124.652 148.148C124.363 147.867 124.133 147.518 123.961 147.1C123.789 146.678 123.703 146.207 123.703 145.688C123.703 145.047 123.83 144.453 124.084 143.906C124.342 143.355 124.701 142.885 125.162 142.494C125.627 142.1 126.197 141.791 126.873 141.568C127.549 141.346 128.289 141.234 129.094 141.234C129.406 141.234 129.73 141.256 130.066 141.299C130.406 141.338 130.76 141.406 131.127 141.504C131.498 141.602 131.854 141.721 132.193 141.861C132.533 142.002 132.857 142.182 133.166 142.4C133.479 142.615 133.748 142.855 133.975 143.121C134.201 143.387 134.381 143.699 134.514 144.059C134.65 144.418 134.719 144.805 134.719 145.219C134.719 145.738 134.535 146.182 134.168 146.549C133.805 146.912 133.363 147.094 132.844 147.094C132.324 147.094 131.881 146.912 131.514 146.549C131.15 146.182 130.969 145.738 130.969 145.219C130.969 144.871 131.057 144.553 131.232 144.264C131.408 143.971 131.641 143.742 131.93 143.578C131.41 143.266 130.699 143.109 129.797 143.109C128.973 143.109 128.375 143.238 128.004 143.496C127.637 143.75 127.453 144.168 127.453 144.75ZM136.008 141.469H149.602V146.156H147.492V145.219C147.492 145.027 147.475 144.83 147.439 144.627C147.408 144.424 147.357 144.223 147.287 144.023C147.221 143.824 147.123 143.662 146.994 143.537C146.865 143.408 146.719 143.344 146.555 143.344H144.68V154.125H146.555V156H139.055V154.125H140.93V143.344H139.055C138.891 143.344 138.744 143.408 138.615 143.537C138.486 143.662 138.387 143.824 138.316 144.023C138.25 144.223 138.199 144.424 138.164 144.627C138.133 144.83 138.117 145.027 138.117 145.219V146.156H136.008V141.469ZM154.875 141.469H157.453L163.061 154.125H164.484V156H156.984V154.125H158.859L158.027 152.25H152.73L151.951 154.125H155.578V156H148.078V154.125H149.607L154.875 141.469ZM153.51 150.375H157.195L155.742 147.094C155.555 146.664 155.406 146.242 155.297 145.828C155.145 146.367 155.004 146.789 154.875 147.094L153.51 150.375ZM171.633 148.5H179.602V150.609H178.195V156H177.258L175.887 154.969C175.023 155.812 173.762 156.234 172.102 156.234C171.402 156.234 170.734 156.16 170.098 156.012C169.465 155.867 168.891 155.664 168.375 155.402C167.863 155.141 167.391 154.828 166.957 154.465C166.523 154.102 166.148 153.701 165.832 153.264C165.516 152.822 165.246 152.355 165.023 151.863C164.805 151.367 164.641 150.857 164.531 150.334C164.422 149.807 164.367 149.273 164.367 148.734C164.367 148.195 164.422 147.664 164.531 147.141C164.641 146.613 164.805 146.104 165.023 145.611C165.246 145.115 165.516 144.648 165.832 144.211C166.148 143.77 166.523 143.367 166.957 143.004C167.391 142.641 167.863 142.328 168.375 142.066C168.891 141.805 169.465 141.602 170.098 141.457C170.734 141.309 171.402 141.234 172.102 141.234C174.152 141.234 175.793 141.781 177.023 142.875C177.527 143.32 177.887 143.77 178.102 144.223C178.32 144.672 178.43 145.238 178.43 145.922C178.43 146.441 178.246 146.885 177.879 147.252C177.516 147.615 177.074 147.797 176.555 147.797C176.035 147.797 175.592 147.615 175.225 147.252C174.861 146.885 174.68 146.441 174.68 145.922C174.68 145.656 174.732 145.406 174.838 145.172C174.943 144.934 175.09 144.727 175.277 144.551C174.996 144.027 174.615 143.656 174.135 143.438C173.658 143.219 173.059 143.109 172.336 143.109C171.863 143.109 171.424 143.205 171.018 143.396C170.615 143.588 170.266 143.855 169.969 144.199C169.676 144.543 169.424 144.949 169.213 145.418C169.002 145.887 168.844 146.402 168.738 146.965C168.637 147.523 168.586 148.113 168.586 148.734C168.586 149.348 168.648 149.938 168.773 150.504C168.898 151.07 169.08 151.586 169.318 152.051C169.557 152.516 169.836 152.922 170.156 153.27C170.477 153.613 170.844 153.881 171.258 154.072C171.676 154.264 172.113 154.359 172.57 154.359C173.312 154.359 173.938 154.123 174.445 153.65V150.609H171.633V148.5ZM180.539 141.469H193.195V146.156H191.086V145.219C191.086 145.027 191.068 144.83 191.033 144.627C191.002 144.424 190.951 144.223 190.881 144.023C190.814 143.824 190.717 143.662 190.588 143.537C190.459 143.408 190.312 143.344 190.148 143.344H186.164V148.5H188.273V146.391H190.148V152.484H188.273V150.375H186.164V154.125H190.383C190.547 154.125 190.693 154.062 190.822 153.938C190.951 153.809 191.049 153.645 191.115 153.445C191.186 153.246 191.236 153.045 191.268 152.842C191.303 152.639 191.32 152.441 191.32 152.25V151.312H193.43V156H180.539V154.125H182.414V143.344H180.539V141.469Z" fill="#FF9595"/>
<path d="M251.39 221.9L268.159 210.299L272.159 216.081L269.557 217.881L268.757 216.725C268.594 216.489 268.404 216.26 268.187 216.04C267.975 215.816 267.741 215.611 267.484 215.425C267.232 215.236 266.973 215.12 266.707 215.076C266.438 215.027 266.203 215.072 266 215.212L263.687 216.812L272.888 230.112L275.201 228.511L276.802 230.824L267.55 237.225L265.95 234.912L268.263 233.312L259.062 220.013L256.749 221.613C256.546 221.753 256.421 221.957 256.372 222.226C256.319 222.491 256.335 222.776 256.418 223.081C256.506 223.384 256.615 223.675 256.745 223.956C256.88 224.233 257.029 224.49 257.192 224.726L257.992 225.882L255.39 227.683L251.39 221.9ZM269.749 209.199L279 202.798L280.601 205.111L278.288 206.711L287.489 220.01L289.802 218.41L291.402 220.723L282.15 227.124L280.55 224.811L282.863 223.211L273.662 209.911L271.349 211.512L269.749 209.199ZM280.735 201.598L288.252 196.397L298.58 201.778L296.947 190.382L303.864 185.596L305.464 187.909L303.151 189.509L312.353 202.808L314.665 201.208L316.266 203.521L307.014 209.922L305.414 207.609L307.727 206.009L300.511 195.579L302.301 208.053L300.855 209.053L289.5 203.144L296.74 213.61L299.053 212.009L300.653 214.322L293.137 219.523L291.536 217.21L293.849 215.61L284.648 202.311L282.335 203.911L280.735 201.598Z" fill="white"/>
</svg>
